# xmcd
# 
# Track frame offsets:
#     150
#     31675
#     50872
#     80787
# 
# Disc length: 1507
# 
# Revision: 0
# Processed by: cddbd v1.5.2PL0 Copyright (c) Steve Scherf et al.
# Submitted via: BonkEnc v1.0.8
# 
DISCID=2e05e104
DTITLE=Various Artist - Love Me Tender
DYEAR=1990
DGENRE=Disco
TTITLE0=Boogie Boys - Love Me Tender (12" Mix)
TTITLE1=Boogie Boys - Love Me Tender (7" Mix)
TTITLE2=Boogie Boys - Love Me Tender (12" Mix V)
TTITLE3=Boogie Boys - Love Me Tender (12" Playback)
EXTD=
EXTT0=
EXTT1=
EXTT2=
EXTT3=
PLAYORDER=
